<mxfile host="app.diagrams.net" agent="Mozilla/5.0 (Macintosh; Intel Mac OS X 10_15_7) AppleWebKit/537.36 (KHTML, like Gecko) Chrome/137.0.0.0 Safari/537.36" version="27.1.6">
  <diagram name="第 1 页" id="RpJx9xaF_pq8AOHEyZ_s">
    <mxGraphModel dx="1410" dy="723" grid="1" gridSize="10" guides="1" tooltips="1" connect="1" arrows="1" fold="1" page="1" pageScale="1" pageWidth="827" pageHeight="1169" math="0" shadow="0">
      <root>
        <mxCell id="0" />
        <mxCell id="1" parent="0" />
        <mxCell id="2Ysso8J_vmr8CVGQCDj7-12" value="Identify" style="whiteSpace=wrap;strokeWidth=2;" vertex="1" parent="1">
          <mxGeometry x="330" y="290" width="50" height="26" as="geometry" />
        </mxCell>
        <mxCell id="2Ysso8J_vmr8CVGQCDj7-13" value="Analyze" style="whiteSpace=wrap;strokeWidth=2;" vertex="1" parent="1">
          <mxGeometry x="300" y="230" width="50" height="26" as="geometry" />
        </mxCell>
        <mxCell id="2Ysso8J_vmr8CVGQCDj7-14" value="Assess" style="whiteSpace=wrap;strokeWidth=2;" vertex="1" parent="1">
          <mxGeometry x="372" y="230" width="50" height="26" as="geometry" />
        </mxCell>
        <mxCell id="2Ysso8J_vmr8CVGQCDj7-15" value="Treat" style="whiteSpace=wrap;strokeWidth=2;" vertex="1" parent="1">
          <mxGeometry x="450" y="230" width="50" height="26" as="geometry" />
        </mxCell>
        <mxCell id="2Ysso8J_vmr8CVGQCDj7-22" style="edgeStyle=orthogonalEdgeStyle;rounded=0;orthogonalLoop=1;jettySize=auto;html=1;entryX=1;entryY=0.5;entryDx=0;entryDy=0;" edge="1" parent="1" source="2Ysso8J_vmr8CVGQCDj7-16" target="2Ysso8J_vmr8CVGQCDj7-12">
          <mxGeometry relative="1" as="geometry" />
        </mxCell>
        <mxCell id="2Ysso8J_vmr8CVGQCDj7-16" value="Monitor" style="whiteSpace=wrap;strokeWidth=2;" vertex="1" parent="1">
          <mxGeometry x="422" y="290" width="50" height="26" as="geometry" />
        </mxCell>
        <mxCell id="2Ysso8J_vmr8CVGQCDj7-17" value="" style="curved=1;startArrow=none;endArrow=block;exitX=0;exitY=0.25;entryX=0;entryY=0.5;rounded=0;exitDx=0;exitDy=0;" edge="1" parent="1" source="2Ysso8J_vmr8CVGQCDj7-12" target="2Ysso8J_vmr8CVGQCDj7-13">
          <mxGeometry relative="1" as="geometry">
            <Array as="points">
              <mxPoint x="310" y="297" />
              <mxPoint x="280" y="260" />
            </Array>
          </mxGeometry>
        </mxCell>
        <mxCell id="2Ysso8J_vmr8CVGQCDj7-18" value="" style="curved=1;startArrow=none;endArrow=block;exitX=0.99;exitY=0.5;entryX=0;entryY=0.5;rounded=0;" edge="1" parent="1" source="2Ysso8J_vmr8CVGQCDj7-13" target="2Ysso8J_vmr8CVGQCDj7-14">
          <mxGeometry relative="1" as="geometry">
            <Array as="points" />
          </mxGeometry>
        </mxCell>
        <mxCell id="2Ysso8J_vmr8CVGQCDj7-19" value="" style="curved=1;startArrow=none;endArrow=block;exitX=1;exitY=0.5;entryX=0;entryY=0.5;rounded=0;" edge="1" parent="1" source="2Ysso8J_vmr8CVGQCDj7-14" target="2Ysso8J_vmr8CVGQCDj7-15">
          <mxGeometry relative="1" as="geometry">
            <Array as="points" />
          </mxGeometry>
        </mxCell>
        <mxCell id="2Ysso8J_vmr8CVGQCDj7-24" value="" style="curved=1;startArrow=none;endArrow=block;exitX=1;exitY=0.5;entryX=1;entryY=0.5;rounded=0;exitDx=0;exitDy=0;entryDx=0;entryDy=0;" edge="1" parent="1" source="2Ysso8J_vmr8CVGQCDj7-15" target="2Ysso8J_vmr8CVGQCDj7-16">
          <mxGeometry relative="1" as="geometry">
            <Array as="points">
              <mxPoint x="530" y="250" />
              <mxPoint x="520" y="290" />
            </Array>
            <mxPoint x="340" y="424" as="sourcePoint" />
            <mxPoint x="310" y="370" as="targetPoint" />
          </mxGeometry>
        </mxCell>
      </root>
    </mxGraphModel>
  </diagram>
</mxfile>
